<svg xmlns="http://www.w3.org/2000/svg" fill="none" viewBox="0 0 73 46"><path fill="var(--fg-bold, #292526)" d="M35.5062 20.7028C44.232 20.7028 51.3057 27.7765 51.3057 36.5023H72.0085C72.0085 16.3426 55.6658 0 35.5062 0V20.7028Z"/><rect width="10.356" height="10.356" fill="#0072CE" transform="matrix(-1 0 0 1 35.5062 10.356)"/><rect width="10.356" height="10.356" fill="#37DBF4" transform="matrix(-1 0 0 1 25.1502 10.356)"/><rect width="10.356" height="10.356" fill="#F2EE83" transform="matrix(-1 0 0 1 10.356 16.2737)"/><rect width="10.356" height="10.356" fill="#00C08B" transform="matrix(-1 0 0 1 25.1502 20.7119)"/><rect width="10.356" height="10.356" fill="#FFB259" transform="matrix(-1 0 0 1 14.7943 31.0679)"/><rect width="10.356" height="10.356" fill="#FF585D" transform="matrix(-1 0 0 1 29.5885 35.5061)"/><rect width="10.356" height="10.356" fill="#8FCDFF" transform="matrix(-1 0 0 1 35.5062 0)"/></svg>